<svg xmlns="http://www.w3.org/2000/svg" viewBox="0 0 100 17.675" fill="#ffffff">
  <path d="M15.654.227c2.946-1.301 4.309 3.453 1.018 3.738-2.072.115-2.945-2.817-1.018-3.738M57.093.125c2.927-.929 3.885 3.598.764 3.741-2.225.172-2.859-3.006-.764-3.741M2.033 2.178C2.887 1.105 4.306.652 5.642.678 8.073.69 10.503.66 12.933.683c.013.996.025 1.99.021 2.986-2.225-.018-4.45.003-6.675.005-.585-.025-1.191.255-1.479.778-.464 1.013-.148 2.229-.296 3.319 2.529.03 5.056.005 7.585.012.017.983-.044 1.97.048 2.951-2.531.024-5.063-.018-7.593.021.423 3.005-1.256 6.49-4.543 6.791C2.626 14.137-.376 5.364 2.033 2.178M49.654.656c1.09-.036 2.183-.003 3.274-.022-.014 5.581-.021 11.165.005 16.749-1.087.006-2.172 0-3.257.005.01-5.577-.031-11.158-.022-16.731M29.725.633c1.095-.044 2.203.081 3.289-.085.136 1.006.021 2.03.06 3.044.077 2.262-.069 4.525.025 6.787q.036 1.257-.024 2.514c-.022 1.491.066 2.98.033 4.47-1.098.013-2.195.006-3.294.018-.009-.534-.014-1.069-.024-1.602-.902 1.233-2.432 1.954-3.956 1.893-1.052-.065-2.117-.356-2.967-.998-1.582-1.148-2.457-3.104-2.505-5.033-.082-1.624.314-3.317 1.33-4.612 1.379-1.823 3.982-2.613 6.121-1.752.735.288 1.427.735 1.907 1.374-.005-2.006-.012-4.012.003-6.017M25.896 7.94c-2.629.794-2.956 4.965-.674 6.354 1.022.653 2.465.632 3.403-.167 1.379-1.155 1.517-3.334.662-4.837-.639-1.167-2.13-1.748-3.393-1.35Zm10.513-.408c.974-1.404 2.573-2.336 4.258-2.569 1.644-.185 3.408.245 4.643 1.384 1.684 1.486 2.191 3.879 2.025 6.036-2.436.009-4.874-.021-7.308.042-.493-.027-.984.048-1.477.031.241.94.861 1.805 1.784 2.172 1.491.674 3.304.21 4.394-.979a30 30 0 0 0 1.932 1.612c-2.118 2.935-6.842 3.184-9.419.731-2.321-2.101-2.586-5.927-.833-8.46zm3.305.638c-.678.506-1.035 1.314-1.249 2.11 1.885.013 3.77-.009 5.654-.006-.083-.73-.347-1.478-.918-1.968-.931-.877-2.483-.903-3.487-.136m34.79-1.927c1.784-1.008 3.9-1.331 5.925-1.165 1.335.104 2.672.718 3.462 1.825.716 1.001.898 2.273.896 3.475.008 2.333.001 4.665.003 6.997-1.078.008-2.155.003-3.231.021a63 63 0 0 1-.001-1.374c-.682.813-1.649 1.405-2.71 1.539-1.401.218-2.968.014-4.085-.919-1.283-1.073-1.552-3.066-.803-4.52.554-1.052 1.688-1.654 2.817-1.885 1.533-.288 3.122-.241 4.651.022.254-.215.043-.563.008-.825-.196-.773-.851-1.391-1.645-1.504a7.27 7.27 0 0 0-3.951.572c-.142.039-.435.226-.47-.036-.292-.739-.555-1.489-.866-2.221h-.001Zm4.012 5.814c-.592.1-1.242.351-1.532.915-.407.719-.171 1.754.607 2.113 1.217.524 2.873.248 3.633-.908.41-.58.31-1.319.347-1.985-1.013-.119-2.036-.236-3.055-.134ZM92.004 9.52c-.022-1.53.001-3.058-.024-4.587 1.157.021 2.314 0 3.471 0-.022 1.529.008 3.057-.017 4.587 1.519-.003 3.036-.005 4.553.005.005 1.103-.005 2.205.009 3.307q-2.279 0-4.557.009c.016 1.53-.017 3.059.016 4.589-1.159.008-2.315.003-3.472.017.005-1.537.013-3.072 0-4.606-1.508-.03-3.014.008-4.522-.009l.003-3.303c1.512-.005 3.025-.006 4.54-.012zM14.888 7.864c1.082-.751 1.945-1.76 2.892-2.659l.418-.022c-.043 4.061-.017 8.124 0 12.186q-1.658.019-3.317.024c.008-3.175-.003-6.352.006-9.528h.001Zm41.213-2.649q1.649-.025 3.301 0c-.025 4.055-.001 8.109.008 12.162q-1.66.017-3.32.018c.017-4.06-.014-8.119.012-12.179Zm5.814-.014c3.397-.006 6.793-.027 10.19.009-.129.863.265 1.9-.412 2.599a480 480 0 0 1-5.614 6.885q3.119-.006 6.238-.016c.003.902-.005 1.805-.001 2.71-3.543.022-7.087 0-10.629.024.025-.749-.008-1.5.021-2.247 2.012-2.412 4.027-4.83 6.05-7.237-1.945-.029-3.889.003-5.836-.013-.005-.903.009-1.809-.008-2.715z"/>
</svg>
